<svg xmlns="http://www.w3.org/2000/svg" viewBox="0 0 1600 900"><defs><linearGradient id="wall" x2="0" y2="1"><stop stop-color="#17152e"/><stop offset="1" stop-color="#30223d"/></linearGradient><linearGradient id="floor" x2="0" y2="1"><stop stop-color="#4c3548"/><stop offset="1" stop-color="#201b2c"/></linearGradient></defs><rect width="1600" height="900" fill="url(#wall)"/><rect y="560" width="1600" height="340" fill="url(#floor)"/><rect x="470" y="70" width="660" height="380" rx="34" fill="#0c1023" stroke="#62486b" stroke-width="28"/><path d="M800 70v380" stroke="#493650" stroke-width="10"/><circle cx="970" cy="155" r="48" fill="#ffe8ad" opacity=".85"/><g fill="#e8b77a" opacity=".7"><circle cx="560" cy="160" r="3"/><circle cx="640" cy="220" r="4"/><circle cx="720" cy="120" r="3"/><circle cx="1040" cy="250" r="4"/><circle cx="1100" cy="170" r="3"/></g><g fill="#ffbd72" opacity=".55"><rect x="490" y="360" width="30" height="45"/><rect x="535" y="345" width="24" height="60"/><rect x="575" y="370" width="32" height="35"/><rect x="990" y="360" width="25" height="45"/><rect x="1030" y="340" width="30" height="65"/><rect x="1075" y="370" width="24" height="35"/></g><path d="M0 520 Q400 490 800 520 T1600 520" fill="none" stroke="#6a4b63" stroke-width="6" opacity=".5"/></svg>