<svg xmlns="http://www.w3.org/2000/svg" viewBox="0 0 100 140" role="img" aria-label="KIKI girl avatar girl5"><ellipse cx="50" cy="132" rx="28" ry="6" fill="#0b0910" opacity=".28"/><path d="M31 102 Q50 92 69 102 Q66 118 49 120 Q34 118 31 102Z" fill="#b89bc2" opacity=".9"/><g><path d="M29 37 Q29 9 53 8 Q74 9 75 31 L66 40 L61 27 L48 32 L38 28 L34 40Z" fill="#25242f"/><ellipse cx="50" cy="35" rx="20" ry="22" fill="#a96f55"/><circle cx="43" cy="36" r="2" fill="#201a24"/><circle cx="61" cy="36" r="2" fill="#201a24"/><path d="M45 44 Q50 48 55 44" fill="none" stroke="#a65d6d" stroke-width="2" stroke-linecap="round"/><path d="M34 58 Q50 51 66 58 L67 91 Q54 99 35 91Z" fill="#f1c48d"/><path d="M43 89 Q34 105 26 111 L43 116" fill="none" stroke="#2a3040" stroke-width="9" stroke-linecap="round"/><path d="M58 89 Q68 104 80 108" fill="none" stroke="#2a3040" stroke-width="9" stroke-linecap="round"/><path d="M35 70 L66 82" stroke="#a96f55" stroke-width="9" stroke-linecap="round"/><path d="M65 70 L38 82" stroke="#a96f55" stroke-width="9" stroke-linecap="round"/><path d="M37 58 L63 58" stroke="rgba(255,255,255,.35)" stroke-width="2"/></g></svg>